<svg xmlns="http://www.w3.org/2000/svg" viewBox="0 0 22.15 18"><defs><style>.a{fill:#fff;}</style></defs><title>social-tw</title><path class="a" d="M344.73,592.76a12.84,12.84,0,0,0,12.93-12.93c0-.2,0-0.39,0-0.59a9.25,9.25,0,0,0,2.27-2.35,9.07,9.07,0,0,1-2.61.72,4.56,4.56,0,0,0,2-2.51,9.11,9.11,0,0,1-2.89,1.1,4.55,4.55,0,0,0-7.74,4.14,12.9,12.9,0,0,1-9.37-4.75,4.55,4.55,0,0,0,1.41,6.07,4.51,4.51,0,0,1-2.06-.57s0,0,0,.06a4.55,4.55,0,0,0,3.65,4.45,4.54,4.54,0,0,1-2.05.08,4.55,4.55,0,0,0,4.24,3.16,9.12,9.12,0,0,1-5.64,1.95,9.25,9.25,0,0,1-1.08-.06,12.86,12.86,0,0,0,7,2" transform="translate(-337.76 -574.76)"/></svg>