<svg xmlns="http://www.w3.org/2000/svg" viewBox="0 0 21.27 18"><defs><style>.a{fill:#fff;}</style></defs><title>social-md</title><path class="a" d="M422.87,576.29h0l-6.42-3.21-0.14,0-0.18,0a0.73,0.73,0,0,0-.62.34l-3.69,6,4.64,7.53,6.45-10.48A0.08,0.08,0,0,0,422.87,576.29Z" transform="translate(-401.66 -573)"/><polygon class="a" points="8.11 4.97 8.11 11.81 14.18 14.84 8.11 4.97"/><path class="a" d="M416.75,588.3l5,2.5c0.65,0.33,1.18.1,1.18-.51v-12Z" transform="translate(-401.66 -573)"/><path class="a" d="M408.71,576.3l-6.27-3.13a0.72,0.72,0,0,0-.32-0.08,0.49,0.49,0,0,0-.47.57v13.53a1.17,1.17,0,0,0,.59,1l5.52,2.76a0.9,0.9,0,0,0,.4.1,0.61,0.61,0,0,0,.58-0.71V576.36A0.07,0.07,0,0,0,408.71,576.3Z" transform="translate(-401.66 -573)"/></svg>